HIERARCHY
ROOT Hips
{
 OFFSET 0.000000 0.000000 0.000000
 CHANNELS 6 Xposition Yposition Zposition Yrotation Xrotation Zrotation
 JOINT Chest
 {
  OFFSET 0.000000 9.585900 0.002600
  CHANNELS 3 Yrotation Xrotation Zrotation
  JOINT Chest2
  {
   OFFSET 0.000000 9.601200 -0.005300
   CHANNELS 3 Yrotation Xrotation Zrotation
   JOINT Chest3
   {
    OFFSET 0.000000 9.561800 0.000000
    CHANNELS 3 Yrotation Xrotation Zrotation
    JOINT Chest4
    {
     OFFSET 0.000000 9.552100 0.000000
     CHANNELS 3 Yrotation Xrotation Zrotation
     JOINT Neck
     {
      OFFSET 0.000000 14.453000 0.000000
      CHANNELS 3 Yrotation Xrotation Zrotation
      JOINT Head
      {
       OFFSET 0.000000 8.936500 -0.011300
       CHANNELS 3 Yrotation Xrotation Zrotation
       End Site
       {
        OFFSET 0.000000 17.073600 -0.006000
       }
      }
     }
     JOINT RightCollar
     {
      OFFSET -2.921100 9.558500 0.000000
      CHANNELS 3 Yrotation Xrotation Zrotation
      JOINT RightShoulder
      {
       OFFSET -13.519700 0.000000 0.000000
       CHANNELS 3 Yrotation Xrotation Zrotation
       JOINT RightElbow
       {
        OFFSET 0.000000 -29.696600 0.000000
        CHANNELS 3 Yrotation Xrotation Zrotation
        JOINT RightWrist
        {
         OFFSET 0.000000 -24.004700 0.000000
         CHANNELS 3 Yrotation Xrotation Zrotation
         End Site
         {
          OFFSET 0.000000 -17.728500 0.000000
         }
        }
       }
      }
     }
     JOINT LeftCollar
     {
      OFFSET 2.921100 9.558500 0.000000
      CHANNELS 3 Yrotation Xrotation Zrotation
      JOINT LeftShoulder
      {
       OFFSET 13.519700 0.000000 0.000000
       CHANNELS 3 Yrotation Xrotation Zrotation
       JOINT LeftElbow
       {
        OFFSET 0.000000 -29.696600 0.000000
        CHANNELS 3 Yrotation Xrotation Zrotation
        JOINT LeftWrist
        {
         OFFSET 0.000000 -24.004700 0.000000
         CHANNELS 3 Yrotation Xrotation Zrotation
         End Site
         {
          OFFSET 0.000000 -17.728500 0.000000
         }
        }
       }
      }
     }
    }
   }
  }
 }
 JOINT RightHip
 {
  OFFSET -7.771700 -0.012900 -0.001300
  CHANNELS 3 Yrotation Xrotation Zrotation
  JOINT RightKnee
  {
   OFFSET 0.000000 -40.869800 0.001200
   CHANNELS 3 Yrotation Xrotation Zrotation
   JOINT RightAnkle
   {
    OFFSET 0.000000 -39.717900 0.002100
    CHANNELS 3 Yrotation Xrotation Zrotation
    JOINT RightToe
    {
     OFFSET 0.000000 -4.965400 11.033500
     CHANNELS 3 Yrotation Xrotation Zrotation
     End Site
     {
      OFFSET 0.000000 -1.423100 5.872300
     }
    }
   }
  }
 }
 JOINT LeftHip
 {
  OFFSET 7.771700 -0.012900 -0.001300
  CHANNELS 3 Yrotation Xrotation Zrotation
  JOINT LeftKnee
  {
   OFFSET 0.000000 -40.869800 0.001200
   CHANNELS 3 Yrotation Xrotation Zrotation
   JOINT LeftAnkle
   {
    OFFSET 0.000000 -39.717900 0.002100
    CHANNELS 3 Yrotation Xrotation Zrotation
    JOINT LeftToe
    {
     OFFSET 0.000000 -4.965400 11.033500
     CHANNELS 3 Yrotation Xrotation Zrotation
     End Site
     {
      OFFSET 0.000000 -1.423100 5.872300
     }
    }
   }
  }
 }
}
MOTION
Frames: 13
Frame Time: 0.008333
0.000000 85.388000 0.000000 0.000000 -5.767877 0.000000 0.000000 11.653817 0.000000 0.000000 -5.885947 0.000000 0.000000 -0.000000 0.000000 0.000000 -0.000000 0.000000 0.000000 12.528835 0.000000 0.000000 0.711642 0.000000 0.000000 -0.000000 0.000000 0.000000 0.000000 -90.000000 0.000000 -2.309062 0.000000 0.000000 2.309062 0.000000 0.000000 -0.000000 0.000000 0.000000 -0.000000 90.000000 0.000000 -2.309062 0.000000 0.000000 2.309062 0.000000 0.000000 8.520406 0.000000 0.000000 1.905762 0.000000 -0.000000 -4.658285 0.000000 0.000000 -0.000000 0.000000 0.000000 8.520406 0.000000 0.000000 1.905762 0.000000 -0.000000 -4.658285 0.000000 0.000000 -0.000000 0.000000
-95.703520 46.609344 -26.602946 172.823035 -32.059719 -2.067858 0.036333 19.105668 1.708175 -0.038658 2.261575 0.218389 -0.059128 3.729195 0.359522 -0.083507 16.545748 1.601934 0.886841 16.005131 0.999659 1.356690 -6.033170 1.497112 -0.793477 0.877911 -1.948780 5.339235 -7.604380 -16.448273 -48.615177 -60.102217 97.475941 -1.595515 3.606533 -18.795078 -0.524917 -0.132597 2.664941 -4.097571 -3.294538 12.485798 69.622366 -69.126213 -109.038958 -0.695137 11.386479 11.924597 -5.595517 -54.832008 -3.006205 -166.709782 79.936365 -156.854435 -8.733712 -13.793305 -8.368363 0.026207 -0.184198 0.019475 0.568162 -56.908326 12.852809 -117.267254 83.199694 -120.957679 6.598358 -6.156753 4.107494 0.052708 0.191384 0.011287
-95.703429 46.609919 -26.605372 172.822752 -32.059611 -2.064924 0.042686 19.108329 1.703295 -0.037661 2.262044 0.218175 -0.057470 3.729890 0.359214 -0.076229 16.547193 1.601237 0.918341 16.029170 0.988219 1.354913 -6.031210 1.509680 -0.783961 0.847843 -1.958783 5.349519 -7.598627 -16.454201 -48.634025 -60.082952 97.482881 -1.575206 3.621535 -18.781475 -0.530682 -0.142992 2.676832 -4.089093 -3.288697 12.462204 69.654601 -69.136810 -109.066135 -0.701522 11.401396 11.917653 -5.586163 -54.833845 -3.009899 -166.728312 79.935007 -156.876790 -8.727282 -13.777663 -8.377898 0.023999 -0.191392 0.028723 0.550337 -56.902852 12.847735 -117.322024 83.210166 -121.006190 6.599977 -6.162982 4.096022 0.055596 0.194533 0.004379
-95.702369 46.610055 -26.607327 172.818268 -32.055227 -2.063990 0.050438 19.105303 1.703965 -0.032692 2.265348 0.216101 -0.055488 3.731018 0.358715 -0.076733 16.544707 1.603827 0.935407 16.041297 0.982083 1.373417 -6.018388 1.507527 -0.768738 0.822535 -1.974282 5.361837 -7.596832 -16.460271 -48.640786 -60.082666 97.493264 -1.572028 3.624981 -18.778386 -0.528524 -0.151568 2.682838 -4.064166 -3.272295 12.421399 69.698090 -69.166384 -109.121206 -0.708674 11.423544 11.905554 -5.570250 -54.837259 -3.013462 -166.740885 79.937160 -156.885996 -8.721690 -13.768121 -8.380435 0.016849 -0.190912 0.029426 0.522376 -56.903991 12.856534 -117.382055 83.215283 -121.064341 6.614763 -6.165506 4.083180 0.051698 0.192089 0.002613
-95.701362 46.610300 -26.609923 172.813497 -32.054142 -2.059204 0.057908 19.105967 1.701374 -0.028508 2.269248 0.213405 -0.053217 3.732264 0.357892 -0.075712 16.541730 1.607227 0.940265 16.044735 0.981639 1.404130 -6.002365 1.497899 -0.755350 0.798303 -1.989088 5.371582 -7.596980 -16.467974 -48.653024 -60.113451 97.527081 -1.590899 3.624228 -18.791864 -0.523717 -0.165584 2.689733 -4.049756 -3.255390 12.390524 69.737225 -69.181491 -109.161635 -0.722839 11.434613 11.901575 -5.551748 -54.838529 -3.020598 -166.733335 79.935468 -156.874026 -8.731704 -13.762984 -8.377715 0.010819 -0.191305 0.026738 0.506276 -56.902080 12.852031 -117.435599 83.221173 -121.114902 6.653643 -6.168839 4.064429 0.054882 0.188500 0.006067
-95.698419 46.610037 -26.611778 172.833189 -32.048815 -2.075382 0.054791 19.110054 1.704174 -0.035443 2.263040 0.218183 -0.050652 3.735072 0.354302 -0.060388 16.546866 1.603826 0.938561 16.040881 0.990896 1.413317 -5.999811 1.498698 -0.752013 0.768956 -1.993688 5.422317 -7.613260 -16.496881 -48.690392 -60.073629 97.516344 -1.559171 3.632177 -18.772727 -0.528560 -0.190942 2.708189 -4.038240 -3.235185 12.364073 69.784357 -69.187702 -109.203901 -0.708107 11.418646 11.932254 -5.582355 -54.840814 -2.989769 -166.718225 79.936986 -156.863664 -8.759795 -13.788139 -8.373380 0.022743 -0.163901 0.025985 0.430192 -56.903978 12.874864 -117.540945 83.234241 -121.225790 6.680350 -6.138924 4.060087 0.037638 0.154841 -0.006036
-95.695643 46.610326 -26.615035 172.835576 -32.053998 -2.075149 0.053677 19.116187 1.701879 -0.033677 2.264444 0.216754 -0.052809 3.735916 0.350603 -0.043623 16.552746 1.600229 0.950143 16.044106 0.993454 1.443857 -5.995053 1.496589 -0.755735 0.751202 -1.989106 5.454352 -7.626933 -16.515124 -48.706443 -60.083818 97.529991 -1.541738 3.630872 -18.774829 -0.531499 -0.208085 2.722556 -4.020649 -3.221499 12.342395 69.877312 -69.162657 -109.267128 -0.740777 11.458485 11.895534 -5.585137 -54.832683 -2.981759 -166.918334 79.947181 -157.066737 -8.800109 -13.796018 -8.365913 0.022271 -0.158738 0.019932 0.410540 -56.897779 12.875913 -117.592813 83.235494 -121.277992 6.718917 -6.140157 4.047143 0.012491 0.150278 -0.005797
-95.691017 46.609671 -26.616832 172.813530 -32.052440 -2.067894 0.067063 19.116117 1.698295 -0.031703 2.264666 0.216629 -0.048812 3.735550 0.350151 -0.027609 16.556140 1.594941 0.961740 16.045174 1.001931 1.476369 -5.989469 1.491112 -0.757640 0.737662 -1.983124 5.454123 -7.624681 -16.511455 -48.716572 -60.132309 97.561399 -1.478874 3.636846 -18.746717 -0.533914 -0.222098 2.734551 -3.998397 -3.207276 12.325464 69.911462 -69.162228 -109.307775 -0.748932 11.470780 11.888942 -5.576360 -54.832912 -2.962854 -166.917239 79.949035 -157.067628 -8.793509 -13.797841 -8.370413 0.014377 -0.153137 0.017905 0.404431 -56.899224 12.891515 -117.640930 83.232053 -121.323923 6.728522 -6.139518 4.040465 0.003156 0.144572 -0.010339
-95.682881 46.609155 -26.618553 172.794873 -32.055028 -2.076712 0.085940 19.119182 1.710850 -0.030857 2.264881 0.216301 -0.045114 3.736518 0.350323 -0.025411 16.554522 1.599233 0.976875 16.049210 0.995903 1.501153 -5.987261 1.490106 -0.738499 0.721965 -1.997962 5.473690 -7.627509 -16.519669 -48.739770 -60.175784 97.602653 -1.511294 3.635088 -18.771312 -0.526681 -0.231456 2.731888 -3.974235 -3.194975 12.311323 69.916183 -69.171272 -109.332633 -0.740954 11.454063 11.898455 -5.601021 -54.823185 -2.877603 -166.898994 79.961429 -157.064916 -8.850909 -13.812941 -8.374859 0.041687 -0.137428 0.034443 0.378596 -56.896918 12.932348 -117.673034 83.227435 -121.353756 6.746889 -6.142418 4.037072 0.005503 0.143458 -0.012386
-95.676240 46.608330 -26.620345 172.791653 -32.057732 -2.078361 0.087386 19.121066 1.708042 -0.027379 2.267804 0.209895 -0.044403 3.735812 0.359365 -0.017201 16.557282 1.595212 0.989434 16.050138 0.998033 1.522915 -5.988283 1.489496 -0.708551 0.698029 -2.019740 5.509927 -7.639485 -16.532038 -48.774351 -60.157569 97.602885 -1.519306 3.639322 -18.776001 -0.529242 -0.243489 2.735598 -3.964425 -3.186118 12.307648 69.929814 -69.170633 -109.350490 -0.731677 11.442955 11.906640 -5.611411 -54.816127 -2.843020 -167.033002 79.973385 -157.205882 -8.887055 -13.825059 -8.385866 0.037481 -0.128040 0.048205 0.371940 -56.894277 12.942344 -117.677808 83.223620 -121.356457 6.755907 -6.143000 4.037304 -0.000783 0.142259 -0.016993
-95.668690 46.607342 -26.621805 172.787884 -32.061137 -2.079921 0.097170 19.125984 1.700061 -0.030264 2.266727 0.219802 -0.044226 3.737123 0.360108 -0.008581 16.562664 1.590702 1.000945 16.048799 0.999872 1.545939 -5.992360 1.490825 -0.700541 0.680506 -2.022726 5.503057 -7.635201 -16.523795 -48.777220 -60.169278 97.613148 -1.512019 3.649281 -18.766859 -0.535731 -0.257403 2.739633 -3.954313 -3.179034 12.304982 69.955761 -69.165730 -109.367646 -0.731734 11.437084 11.899817 -5.625906 -54.810622 -2.805381 -167.000237 79.972901 -157.180215 -8.903330 -13.832415 -8.396488 0.035181 -0.124593 0.058965 0.358019 -56.891303 12.956380 -117.704829 83.218217 -121.381817 6.766820 -6.147363 4.032823 -0.011887 0.142762 -0.018374
-95.659524 46.606202 -26.622593 172.780763 -32.064202 -2.086051 0.111258 19.129357 1.706022 -0.032046 2.266182 0.221316 -0.040458 3.737768 0.355126 -0.000826 16.563744 1.590059 1.013538 16.048789 1.004403 1.568586 -5.992988 1.495578 -0.691552 0.667018 -2.022875 5.518827 -7.645813 -16.528608 -48.782719 -60.143676 97.591910 -1.489281 3.662222 -18.748932 -0.544081 -0.266075 2.744843 -3.928339 -3.183564 12.285408 69.935691 -69.174906 -109.354154 -0.739947 11.429643 11.905038 -5.648240 -54.806929 -2.754825 -166.885417 79.967910 -157.075015 -8.903347 -13.830890 -8.405503 0.047252 -0.127156 0.063148 0.323721 -56.886635 13.000032 -117.723817 83.212363 -121.407764 6.771189 -6.150119 4.026935 -0.016598 0.145118 -0.013909
-95.651514 46.604771 -26.622781 172.776118 -32.064914 -2.085529 0.117633 19.130211 1.706733 -0.019403 2.266099 0.207395 -0.044820 3.738614 0.362918 0.021055 16.564182 1.578152 1.016568 16.047382 1.024512 1.588355 -5.992742 1.504642 -0.706802 0.658388 -2.001184 5.564701 -7.695914 -16.554248 -48.758544 -60.104985 97.539720 -1.484208 3.674021 -18.747494 -0.569670 -0.271879 2.768901 -3.922374 -3.184198 12.281075 69.961540 -69.175526 -109.366647 -0.754997 11.439864 11.895027 -5.655291 -54.807555 -2.727806 -166.787607 79.961902 -156.981323 -8.903148 -13.827318 -8.410007 0.054026 -0.132252 0.060634 0.312505 -56.885091 13.018465 -117.719009 83.207517 -121.404693 6.766741 -6.151249 4.026736 -0.009726 0.147110 -0.015514
